<?xml version="1.0" encoding="UTF-8" standalone="no"?>
<!DOCTYPE svg PUBLIC "-//W3C//DTD SVG 1.1//EN"
 "http://www.w3.org/Graphics/SVG/1.1/DTD/svg11.dtd">
<svg
 xmlns="http://www.w3.org/2000/svg"
 xmlns:xlink="http://www.w3.org/1999/xlink"
 version="1.1"
 width="794"
 height="1123">

  <defs>
    <linearGradient id="grad1" x1="0%" y1="0%" x2="100%" y2="0%">
      <stop offset="0%" style="stop-color:rgb(100,0,0);stop-opacity:1" />
      <stop offset="100%" style="stop-color:rgb(200,0,0);stop-opacity:1" />
    </linearGradient>
    <radialGradient id="grad2" cx="50%" cy="50%" r="100%" fx="50%" fy="50%">
      <stop offset="0%" style="stop-color:rgb(120,0,0);stop-opacity:1" />
      <stop offset="100%" style="stop-color:rgb(200,0,0);stop-opacity:1" />
    </radialGradient>
  </defs>

  <style>
    .small {  font: 33px "My Bleeding Scars"; fill: rgb(200,0,0);}
    .inscribe { font: 40px "My Bleeding Scars"; fill: url(#grad2);}
    .medium { font: 69px "My Bleeding Scars"; fill: url(#grad2);}
    .large { font: 152px "My Bleeding Scars"; fill: url(#grad2);}
  </style>

  <rect x="0" y="0" width="100%" height="100%" style="fill: black;" />

  <text text-anchor="middle" x="50%" y="160" class="large">THE GLOG</text>
  <text text-anchor="middle" x="50%" y="230" class="small">The Goblin Laws Of Gaming - Kobold Edition</text>
  <text text-anchor="middle" x="50%" y="1050" class="medium">The Princess Japanoise</text>

  <g transform="translate(123,370)">

    <circle cx="256" cy="256" r="300" style="stroke: url(#grad2); stroke-width: 18;" />
    <circle cx="256" cy="256" r="233" style="stroke: url(#grad2); stroke-width: 18;" />

    <g id="edge" transform="translate(2 0)">
      <path
	  d="M 485.80822,330.9275 L 447.96845,330.9275 L 457.48615,309.78263 L 485.80822,330.9275 z"
	  style="fill:#000" />
      <path
	  d="M 224.35975,325.5063 L 220.42718,311.2407 L 424.63751,311.55922 L 336.66628,247.34393 L 341.12052,233.23884 L 468.43754,325.29312 L 224.35975,325.5063 z"
	  style="fill:url(#grad1)" />
    </g>

    <use xlink:href="#edge" transform="rotate(72 256 256)" />
    <use xlink:href="#edge" transform="rotate(144 256 256)" />
    <use xlink:href="#edge" transform="rotate(216 256 256)" />
    <use xlink:href="#edge" transform="rotate(288 256 256)" />

    <text text-anchor="middle" x="256" y="270" class="medium">d20</text>

    <text text-anchor="middle" x="256" y="535" class="inscribe">d12</text>

    <text text-anchor="middle" x="510" y="350" class="inscribe">d10</text>
    <text text-anchor="middle" x="2" y="350" class="inscribe">d4</text>

    <text text-anchor="middle" x="407" y="47" class="inscribe">d8</text>
    <text text-anchor="middle" x="105" y="47" class="inscribe">d6</text>
  </g>
</svg>
